<svg version="1.1" xmlns="http://www.w3.org/2000/svg" style="display: block;" viewBox="0 0 2048 1118" width="1024" height="559" preserveAspectRatio="none">
<path transform="translate(0,0)" fill="rgb(17,250,192)" d="M 443.575 392.337 C 461.274 391.695 481.07 392.572 498.992 392.701 L 591.527 392.806 L 660.109 392.337 C 717.78 391.829 727.017 384.419 721.619 447.449 C 738.247 432.206 754.074 412.953 770.602 398.32 C 775.671 402.254 787.07 414.353 790.842 419.444 L 661.566 552.304 C 647.092 567.124 610.194 608.4 595.307 616.876 C 578.105 598.181 549.599 570.007 531.152 552.069 C 511.993 572.842 491.642 592.654 472.14 613.105 C 466.347 619.18 457.255 627.322 453.525 634.503 C 452.888 650.785 453.353 669.404 454.136 685.647 C 481.515 687.071 519.312 685.881 547.37 685.939 C 595.357 686.038 645.177 686.521 693.047 685.445 C 694.124 665.367 692.348 644.348 692.909 624.177 C 693.651 597.509 692.447 570.349 693.854 543.777 C 699.467 536.613 716.316 518.823 723.525 514.709 C 722.042 532.507 722.294 553.734 722.248 571.746 L 722.254 645.796 C 722.348 658.761 722.711 671.787 722.556 684.752 C 722.359 701.36 721.432 711.619 703.251 715.094 C 649.09 715.337 594.928 715.292 540.767 714.962 L 478.113 715.243 C 467.527 715.292 453.192 715.784 442.987 715.031 C 439.458 714.741 436.053 713.589 433.072 711.676 C 419.109 702.833 426.278 677.957 423.457 664.9 C 415.436 666.385 385.777 706.771 376.387 710.153 C 369.632 709.219 359.326 697.207 353.961 691.916 C 368.024 674.953 390.655 654.239 406.347 637.45 C 446.667 594.311 491.345 551.734 531.115 508.412 C 552.108 530.971 575.72 552.53 596.481 575.548 C 606.546 567.212 630.435 541.779 640.651 530.979 C 655.291 515.5 680.409 491.786 693.278 476.016 C 693.039 457.69 693.364 439.276 693.235 420.915 C 672.83 421.663 649.732 421.167 629.194 421.142 L 515.444 421.037 C 496.069 421.045 473.011 420.476 454.098 421.514 C 449.151 461.192 456.283 511.941 453.993 552.639 C 452.97 570.806 437.461 581.578 425.032 592.939 C 422.093 535.578 425.221 474.405 424.39 416.832 C 424.174 401.871 429.313 395.29 443.575 392.337 z"/>
<path transform="translate(0,0)" fill="rgb(17,250,192)" d="M 1375.46 514.318 C 1391.84 513.846 1447.03 510.88 1458.96 519.838 C 1465.11 524.458 1469.47 531.124 1470.52 538.765 C 1472.39 552.247 1472.67 601.231 1470.36 614.185 C 1469.52 618.898 1467.97 622.962 1465.01 626.769 C 1459.7 633.599 1452.99 636.227 1444.68 637.291 C 1428.41 638.814 1375.07 640.624 1360.28 632.426 C 1341.44 621.984 1349.9 573.797 1347.77 554.137 C 1345.69 534.907 1354.03 517.785 1375.46 514.318 z M 1374.98 610.206 C 1383.19 612.263 1431.37 610.948 1442.67 610.666 C 1445.27 607.265 1444.18 550.716 1444.17 542.052 C 1436.9 540.554 1384.72 540.44 1375.59 541.235 C 1373.88 551.605 1374.89 597.353 1374.98 610.206 z"/>
<path transform="translate(0,0)" fill="rgb(17,250,192)" d="M 867.837 483.213 C 895.881 481.773 925.184 483.721 953.4 482.771 C 982.237 481.8 991.583 497.356 990.844 523.411 C 983.413 524.263 971.122 523.966 963.638 523.691 C 963.967 518.764 964.326 516.158 963.382 511.336 C 959.408 507.343 874.187 507.663 869.682 511.245 C 867.918 518.913 868.89 537.402 869.195 546.111 C 894.129 548.325 958.886 540.875 976.955 551.935 C 983.176 555.743 987.863 561.566 989.525 568.739 C 992.166 580.132 992.57 614.558 986.463 624.027 C 981.792 631.269 975.379 635.117 967.149 636.921 C 950.368 639.415 926.405 638.022 908.748 637.808 C 869.121 637.326 842.393 646.293 841.935 596.996 L 868.969 597.167 L 868.944 610.355 C 879.298 612.342 951.409 611.437 962.997 610.364 C 962.88 601.633 964.693 583.26 962.896 576.036 C 955.313 569.32 869.619 580.412 856.115 569.509 C 850.408 566.1 843.703 557.468 843.195 550.205 C 841.369 524.144 834.774 489.968 867.837 483.213 z"/>
<path transform="translate(0,0)" fill="rgb(17,250,192)" d="M 1016.1 514.405 C 1040.95 512.922 1068.68 515.284 1093.57 514.062 C 1140.99 511.732 1137.28 541.098 1137.16 575.996 L 1136.91 637.307 C 1124.05 638.058 1105.83 637.465 1092.54 637.506 C 1077.56 637.552 1052.53 638.912 1038.17 637.122 C 1007.06 632.197 1014.38 586.175 1014.45 562.71 C 1023.67 562.033 1039.04 562.616 1048.61 562.683 C 1069.01 562.97 1089.4 562.85 1109.79 562.322 L 1109.95 541.239 C 1078.49 540.212 1046.15 542.196 1014.82 541.34 C 1014.65 535.049 1013.33 518.624 1016.1 514.405 z M 1041.1 610.753 C 1063.93 611.148 1086.76 611.094 1109.58 610.589 C 1110.24 603.988 1109.85 594.778 1109.74 587.937 C 1087.43 586.227 1064.05 588.42 1042.08 586.961 C 1040.15 592.946 1040.82 604.233 1041.1 610.753 z"/>
<path transform="translate(0,0)" fill="rgb(17,250,192)" d="M 1211.93 473.291 C 1214.85 473.242 1235.21 472.413 1236.34 474.987 C 1242.47 488.92 1234.1 552.236 1239.28 561.471 C 1244.68 564.296 1254.25 562.634 1260.45 562.001 C 1274.44 547.861 1289.76 527.428 1303.62 514.501 C 1309.37 513.906 1327.37 512.983 1332.12 515.903 C 1332.17 516.167 1332.24 516.428 1332.27 516.694 C 1333.1 523.176 1291.51 567.173 1284.94 575.003 C 1292.45 585.512 1306.17 600.626 1314.87 610.555 C 1319.85 616.932 1336.75 629.577 1329.66 636.623 C 1324.49 638.538 1305.64 639.275 1301.62 635.251 C 1287.59 621.204 1273.52 604.699 1261.32 589.01 C 1251.02 588.444 1247.23 587.915 1237.02 589.342 C 1238.83 600.282 1238.08 625.016 1237.99 636.781 C 1228.31 637.722 1221.75 637.976 1212.01 637.977 C 1210.96 612.704 1211.15 586.374 1211.09 561.028 C 1211.02 532.139 1210.77 502.141 1211.93 473.291 z"/>
<path transform="translate(0,0)" fill="rgb(17,250,192)" d="M 1494.97 514.44 C 1504.41 514.09 1511.74 514.001 1521.17 514.387 C 1522.03 521.859 1521.27 538.594 1521.19 546.872 C 1520.96 568.877 1520.76 588.954 1522.17 610.9 C 1544.99 611.267 1567.82 611 1590.63 610.102 C 1590.91 578.252 1590.94 546.399 1590.72 514.548 C 1599.29 513.835 1609.02 514.017 1617.6 514.471 C 1618.29 522.586 1617.95 533.572 1617.91 541.932 C 1618.06 561.156 1621.56 607.956 1613.34 623.415 C 1610.25 629.225 1605.39 633.796 1599 635.629 C 1585.93 639.376 1536.35 639.181 1522.07 637.345 C 1517.32 636.734 1512.55 635.448 1508.34 633.109 C 1501.85 629.495 1497.8 623.796 1495.85 616.69 C 1493.62 608.59 1492.91 518.122 1494.97 514.44 z"/>
<path transform="translate(0,0)" fill="rgb(17,250,192)" d="M 1160.91 514.351 C 1168.15 514.149 1178.95 513.261 1185.53 515.662 C 1187.26 517.912 1187.43 529.653 1187.16 532.55 C 1185.75 547.404 1189.54 630.509 1185.77 636.955 C 1177.35 637.716 1168.78 637.721 1160.35 637.505 C 1159.31 623.68 1158.15 518.834 1160.91 514.351 z"/>
<path transform="translate(0,0)" fill="rgb(17,250,192)" d="M 1161.61 473.231 C 1167.61 473.082 1180.88 472.038 1185.86 474.616 C 1188.64 479.573 1188.42 496.442 1183.94 500.735 C 1177.28 501.092 1168.1 500.839 1161.24 500.863 C 1160.41 493.716 1159.61 479.952 1161.61 473.231 z"/>
</svg>